# xmcd
#
# Track frame offsets: 
#        150
#        19968
#        37090
#        52669
#        70469
#        85280
#        101361
#        120757
#        137309
#        155665
#        175961
#        195434
#        220708
#
# Disc length: 4657 seconds
#
# Revision: 0
# Processed by: cddbd v1.5.2PL0 Copyright (c) Steve Scherf et al.
# Submitted via: ExactAudioCopy v0.95b4
#
DISCID=a4122f0d
DTITLE=Cherish - Unappreciated
DYEAR=2006
DGENRE=R&B
TTITLE0=That Boi
TTITLE1=Do It to It
TTITLE2=Chevy
TTITLE3=Unappreciated
TTITLE4=Taken
TTITLE5=Stop Calling Me
TTITLE6=Oooh
TTITLE7=Chick Like Me
TTITLE8=Whenever
TTITLE9=Show and Tell
TTITLE10=Fool 4 You
TTITLE11=Moment in Time
TTITLE12=Video
EXTD=
EXTT0=
EXTT1=
EXTT2=
EXTT3=
EXTT4=
EXTT5=
EXTT6=
EXTT7=
EXTT8=
EXTT9=
EXTT10=
EXTT11=
EXTT12=
PLAYORDER=
